<svg xmlns="http://www.w3.org/2000/svg" xmlns:xlink="http://www.w3.org/1999/xlink" width="500" zoomAndPan="magnify" viewBox="0 0 375 374.999991" height="500" preserveAspectRatio="xMidYMid meet" version="1.0"><defs><filter x="0%" y="0%" width="100%" height="100%" id="25d8aded92"><feColorMatrix values="0 0 0 0 1 0 0 0 0 1 0 0 0 0 1 0 0 0 1 0" color-interpolation-filters="sRGB"/></filter><mask id="222a381809"><g filter="url(#25d8aded92)"><rect x="-37.5" width="450" fill="#000000" y="-37.499999" height="449.999989" fill-opacity="0.2"/></g></mask><clipPath id="e2962f4c1e"><path d="M 0.320312 1 L 246.558594 1 L 246.558594 302.320312 L 0.320312 302.320312 Z M 0.320312 1 " clip-rule="nonzero"/></clipPath><clipPath id="44f8787a63"><rect x="0" width="247" y="0" height="303"/></clipPath></defs><g mask="url(#222a381809)"><g transform="matrix(1, 0, 0, 1, 64, 26)"><g clip-path="url(#44f8787a63)"><g clip-path="url(#e2962f4c1e)"><path fill="#ff6600" d="M 246.546875 179.078125 C 246.546875 181.09375 246.496094 183.105469 246.398438 185.117188 C 246.300781 187.128906 246.152344 189.132812 245.953125 191.140625 C 245.757812 193.144531 245.511719 195.140625 245.214844 197.132812 C 244.917969 199.125 244.574219 201.109375 244.183594 203.082031 C 243.789062 205.058594 243.347656 207.023438 242.859375 208.976562 C 242.371094 210.929688 241.832031 212.871094 241.25 214.796875 C 240.664062 216.722656 240.03125 218.636719 239.355469 220.53125 C 238.675781 222.425781 237.949219 224.304688 237.179688 226.167969 C 236.410156 228.027344 235.59375 229.867188 234.734375 231.6875 C 233.871094 233.507812 232.96875 235.304688 232.019531 237.082031 C 231.066406 238.859375 230.074219 240.609375 229.039062 242.335938 C 228.003906 244.0625 226.929688 245.765625 225.808594 247.4375 C 224.691406 249.113281 223.53125 250.757812 222.332031 252.378906 C 221.132812 253.996094 219.894531 255.582031 218.617188 257.136719 C 217.339844 258.695312 216.023438 260.21875 214.671875 261.710938 C 213.320312 263.203125 211.929688 264.660156 210.507812 266.085938 C 209.082031 267.507812 207.625 268.898438 206.132812 270.25 C 204.640625 271.601562 203.117188 272.917969 201.558594 274.195312 C 200.003906 275.472656 198.417969 276.710938 196.800781 277.910156 C 195.179688 279.109375 193.535156 280.269531 191.859375 281.386719 C 190.1875 282.507812 188.484375 283.582031 186.757812 284.617188 C 185.03125 285.652344 183.28125 286.644531 181.503906 287.597656 C 179.726562 288.546875 177.929688 289.449219 176.109375 290.3125 C 174.289062 291.171875 172.449219 291.988281 170.589844 292.757812 C 168.726562 293.527344 166.847656 294.253906 164.953125 294.933594 C 163.058594 295.609375 161.144531 296.242188 159.21875 296.828125 C 157.292969 297.410156 155.351562 297.949219 153.398438 298.4375 C 151.445312 298.925781 149.480469 299.367188 147.503906 299.761719 C 145.53125 300.152344 143.546875 300.496094 141.554688 300.792969 C 139.5625 301.089844 137.566406 301.335938 135.5625 301.53125 C 133.554688 301.730469 131.550781 301.878906 129.539062 301.976562 C 127.527344 302.074219 125.515625 302.125 123.5 302.125 C 121.484375 302.125 119.472656 302.074219 117.460938 301.976562 C 115.449219 301.878906 113.441406 301.730469 111.4375 301.53125 C 109.433594 301.335938 107.4375 301.089844 105.445312 300.792969 C 103.453125 300.496094 101.46875 300.152344 99.496094 299.761719 C 97.519531 299.367188 95.554688 298.925781 93.601562 298.4375 C 91.648438 297.949219 89.707031 297.410156 87.78125 296.828125 C 85.855469 296.242188 83.941406 295.609375 82.046875 294.933594 C 80.152344 294.253906 78.273438 293.527344 76.410156 292.757812 C 74.550781 291.988281 72.710938 291.171875 70.890625 290.3125 C 69.070312 289.449219 67.273438 288.546875 65.496094 287.597656 C 63.71875 286.644531 61.96875 285.652344 60.242188 284.617188 C 58.515625 283.582031 56.8125 282.507812 55.140625 281.386719 C 53.464844 280.269531 51.820312 279.109375 50.199219 277.910156 C 48.582031 276.710938 46.996094 275.472656 45.441406 274.195312 C 43.882812 272.917969 42.359375 271.601562 40.867188 270.25 C 39.375 268.898438 37.917969 267.507812 36.492188 266.085938 C 35.070312 264.660156 33.679688 263.203125 32.328125 261.710938 C 30.976562 260.21875 29.660156 258.695312 28.382812 257.136719 C 27.105469 255.582031 25.867188 253.996094 24.667969 252.378906 C 23.46875 250.757812 22.308594 249.113281 21.191406 247.4375 C 20.070312 245.765625 18.996094 244.0625 17.960938 242.335938 C 16.925781 240.609375 15.929688 238.859375 14.980469 237.082031 C 14.03125 235.304688 13.128906 233.507812 12.265625 231.6875 C 11.40625 229.867188 10.589844 228.027344 9.820312 226.167969 C 9.050781 224.304688 8.324219 222.425781 7.644531 220.53125 C 6.96875 218.636719 6.335938 216.722656 5.75 214.796875 C 5.167969 212.871094 4.628906 210.929688 4.140625 208.976562 C 3.652344 207.023438 3.210938 205.058594 2.816406 203.082031 C 2.425781 201.109375 2.082031 199.125 1.785156 197.132812 C 1.488281 195.140625 1.242188 193.144531 1.046875 191.140625 C 0.847656 189.132812 0.699219 187.128906 0.601562 185.117188 C 0.503906 183.105469 0.453125 181.09375 0.453125 179.078125 C 0.453125 142.773438 18.90625 103.828125 41.519531 69.738281 L 41.523438 69.738281 L 100.0625 108.765625 L 151.074219 1.644531 C 193.8125 44.3125 246.546875 102.90625 246.546875 179.078125 Z M 246.546875 179.078125 " fill-opacity="1" fill-rule="nonzero"/></g></g></g></g><path fill="#ff6600" d="M 274.355469 218.585938 C 274.011719 220.875 273.574219 223.144531 273.046875 225.398438 C 272.519531 227.652344 271.902344 229.882812 271.199219 232.085938 C 270.492188 234.292969 269.703125 236.464844 268.828125 238.605469 C 267.949219 240.75 266.988281 242.851562 265.945312 244.917969 C 264.902344 246.984375 263.777344 249.003906 262.574219 250.980469 C 261.367188 252.957031 260.085938 254.882812 258.730469 256.757812 C 257.371094 258.632812 255.941406 260.453125 254.441406 262.214844 C 252.9375 263.976562 251.371094 265.675781 249.734375 267.3125 C 248.097656 268.949219 246.398438 270.515625 244.636719 272.019531 C 242.875 273.519531 241.058594 274.949219 239.183594 276.308594 C 237.308594 277.664062 235.382812 278.945312 233.40625 280.152344 C 231.429688 281.355469 229.40625 282.480469 227.339844 283.523438 C 225.277344 284.566406 223.171875 285.527344 221.03125 286.40625 C 218.886719 287.28125 216.714844 288.074219 214.507812 288.777344 C 212.304688 289.480469 210.074219 290.097656 207.820312 290.625 C 205.566406 291.152344 203.296875 291.589844 201.007812 291.9375 C 200.410156 292.027344 199.808594 292.074219 199.207031 292.074219 C 198.472656 292.074219 197.75 292.003906 197.03125 291.867188 C 196.3125 291.730469 195.613281 291.527344 194.929688 291.261719 C 194.25 290.992188 193.601562 290.664062 192.980469 290.277344 C 192.363281 289.886719 191.785156 289.441406 191.25 288.945312 C 190.710938 288.449219 190.226562 287.90625 189.792969 287.316406 C 189.359375 286.730469 188.980469 286.105469 188.664062 285.445312 C 188.347656 284.789062 188.09375 284.105469 187.902344 283.398438 C 187.714844 282.691406 187.589844 281.972656 187.535156 281.246094 C 187.480469 280.515625 187.492188 279.789062 187.574219 279.0625 C 187.652344 278.332031 187.800781 277.621094 188.015625 276.921875 C 188.230469 276.222656 188.507812 275.546875 188.847656 274.902344 C 189.1875 274.253906 189.585938 273.644531 190.039062 273.070312 C 190.496094 272.496094 191 271.972656 191.550781 271.492188 C 192.105469 271.015625 192.695312 270.589844 193.328125 270.222656 C 193.960938 269.855469 194.621094 269.550781 195.3125 269.304688 C 196 269.0625 196.707031 268.886719 197.429688 268.773438 C 199.101562 268.503906 200.761719 268.167969 202.40625 267.769531 C 204.050781 267.371094 205.679688 266.910156 207.289062 266.382812 C 208.898438 265.855469 210.484375 265.265625 212.046875 264.617188 C 213.609375 263.964844 215.144531 263.253906 216.652344 262.484375 C 218.160156 261.714844 219.636719 260.886719 221.078125 260 C 222.519531 259.113281 223.925781 258.171875 225.296875 257.175781 C 226.664062 256.179688 227.992188 255.132812 229.28125 254.03125 C 230.566406 252.929688 231.808594 251.78125 233.007812 250.585938 C 234.203125 249.386719 235.351562 248.144531 236.453125 246.859375 C 237.554688 245.570312 238.601562 244.242188 239.597656 242.875 C 240.59375 241.503906 241.535156 240.097656 242.421875 238.65625 C 243.308594 237.214844 244.136719 235.738281 244.90625 234.230469 C 245.675781 232.722656 246.386719 231.1875 247.039062 229.625 C 247.6875 228.0625 248.277344 226.476562 248.804688 224.867188 C 249.328125 223.257812 249.792969 221.628906 250.191406 219.984375 C 250.589844 218.339844 250.925781 216.679688 251.195312 215.007812 C 251.3125 214.25 251.503906 213.507812 251.765625 212.785156 C 252.027344 212.0625 252.359375 211.371094 252.761719 210.710938 C 253.160156 210.054688 253.621094 209.441406 254.140625 208.875 C 254.660156 208.308594 255.230469 207.796875 255.851562 207.34375 C 256.472656 206.886719 257.128906 206.5 257.828125 206.175781 C 258.527344 205.847656 259.25 205.59375 259.996094 205.414062 C 260.742188 205.230469 261.5 205.121094 262.269531 205.089844 C 263.039062 205.054688 263.804688 205.097656 264.5625 205.214844 C 265.324219 205.332031 266.066406 205.523438 266.789062 205.785156 C 267.511719 206.050781 268.203125 206.382812 268.859375 206.78125 C 269.515625 207.179688 270.128906 207.640625 270.695312 208.160156 C 271.261719 208.679688 271.773438 209.25 272.230469 209.871094 C 272.683594 210.492188 273.074219 211.152344 273.398438 211.847656 C 273.722656 212.546875 273.976562 213.269531 274.160156 214.015625 C 274.34375 214.765625 274.449219 215.523438 274.484375 216.292969 C 274.515625 217.058594 274.472656 217.824219 274.355469 218.585938 Z M 322.265625 205.078125 C 322.265625 207.285156 322.210938 209.488281 322.101562 211.691406 C 321.996094 213.894531 321.832031 216.09375 321.617188 218.289062 C 321.402344 220.480469 321.128906 222.671875 320.808594 224.851562 C 320.484375 227.035156 320.105469 229.207031 319.675781 231.371094 C 319.246094 233.53125 318.761719 235.683594 318.226562 237.824219 C 317.691406 239.960938 317.101562 242.085938 316.460938 244.199219 C 315.824219 246.308594 315.128906 248.402344 314.386719 250.480469 C 313.644531 252.554688 312.851562 254.613281 312.007812 256.652344 C 311.164062 258.6875 310.269531 260.703125 309.328125 262.699219 C 308.382812 264.691406 307.390625 266.660156 306.351562 268.605469 C 305.3125 270.550781 304.226562 272.46875 303.09375 274.363281 C 301.957031 276.253906 300.777344 278.117188 299.554688 279.949219 C 298.328125 281.785156 297.058594 283.585938 295.746094 285.359375 C 294.429688 287.128906 293.074219 288.867188 291.675781 290.574219 C 290.277344 292.277344 288.835938 293.945312 287.355469 295.582031 C 285.875 297.214844 284.351562 298.8125 282.792969 300.371094 C 281.234375 301.929688 279.636719 303.453125 278.003906 304.933594 C 276.367188 306.414062 274.699219 307.855469 272.996094 309.253906 C 271.289062 310.652344 269.550781 312.007812 267.78125 313.324219 C 266.007812 314.636719 264.207031 315.90625 262.371094 317.132812 C 260.539062 318.355469 258.675781 319.535156 256.785156 320.671875 C 254.890625 321.804688 252.972656 322.890625 251.027344 323.929688 C 249.082031 324.96875 247.113281 325.960938 245.121094 326.90625 C 243.125 327.847656 241.109375 328.742188 239.074219 329.585938 C 237.035156 330.429688 234.976562 331.222656 232.902344 331.964844 C 230.824219 332.707031 228.730469 333.402344 226.621094 334.039062 C 224.511719 334.679688 222.386719 335.269531 220.246094 335.804688 C 218.105469 336.339844 215.953125 336.824219 213.792969 337.253906 C 211.628906 337.683594 209.457031 338.0625 207.273438 338.386719 C 205.09375 338.707031 202.902344 338.980469 200.710938 339.195312 C 198.515625 339.410156 196.316406 339.574219 194.113281 339.679688 C 191.910156 339.789062 189.707031 339.84375 187.5 339.84375 C 185.292969 339.84375 183.089844 339.789062 180.886719 339.679688 C 178.683594 339.574219 176.484375 339.410156 174.289062 339.195312 C 172.097656 338.980469 169.90625 338.707031 167.726562 338.386719 C 165.542969 338.0625 163.371094 337.683594 161.207031 337.253906 C 159.046875 336.824219 156.894531 336.339844 154.753906 335.804688 C 152.613281 335.269531 150.488281 334.679688 148.378906 334.039062 C 146.269531 333.402344 144.175781 332.707031 142.097656 331.964844 C 140.023438 331.222656 137.964844 330.429688 135.925781 329.585938 C 133.890625 328.742188 131.875 327.847656 129.878906 326.90625 C 127.886719 325.960938 125.917969 324.96875 123.972656 323.929688 C 122.027344 322.890625 120.109375 321.804688 118.214844 320.671875 C 116.324219 319.535156 114.460938 318.355469 112.628906 317.132812 C 110.792969 315.90625 108.992188 314.636719 107.21875 313.324219 C 105.449219 312.007812 103.710938 310.652344 102.003906 309.253906 C 100.300781 307.855469 98.632812 306.414062 96.996094 304.933594 C 95.363281 303.453125 93.765625 301.929688 92.207031 300.371094 C 90.648438 298.8125 89.125 297.214844 87.644531 295.582031 C 86.164062 293.945312 84.722656 292.277344 83.324219 290.574219 C 81.925781 288.867188 80.570312 287.128906 79.253906 285.359375 C 77.941406 283.585938 76.671875 281.785156 75.445312 279.949219 C 74.222656 278.117188 73.042969 276.253906 71.90625 274.363281 C 70.773438 272.46875 69.6875 270.550781 68.648438 268.605469 C 67.609375 266.660156 66.617188 264.691406 65.671875 262.699219 C 64.730469 260.703125 63.835938 258.6875 62.992188 256.652344 C 62.148438 254.613281 61.355469 252.554688 60.613281 250.480469 C 59.871094 248.402344 59.175781 246.308594 58.539062 244.199219 C 57.898438 242.085938 57.308594 239.960938 56.773438 237.824219 C 56.238281 235.683594 55.753906 233.53125 55.324219 231.371094 C 54.894531 229.207031 54.515625 227.035156 54.191406 224.851562 C 53.871094 222.671875 53.597656 220.480469 53.382812 218.289062 C 53.167969 216.09375 53.003906 213.894531 52.898438 211.691406 C 52.789062 209.488281 52.734375 207.285156 52.734375 205.078125 C 52.734375 171.261719 67.210938 132.296875 95.757812 89.261719 C 96.183594 88.617188 96.667969 88.023438 97.210938 87.476562 C 97.753906 86.929688 98.34375 86.441406 98.984375 86.011719 C 99.625 85.582031 100.300781 85.21875 101.011719 84.921875 C 101.722656 84.625 102.453125 84.402344 103.210938 84.25 C 103.964844 84.097656 104.730469 84.019531 105.5 84.019531 C 106.269531 84.019531 107.03125 84.09375 107.789062 84.242188 C 108.546875 84.390625 109.28125 84.613281 109.992188 84.90625 C 110.703125 85.199219 111.378906 85.558594 112.023438 85.988281 L 159.300781 117.507812 L 204.492188 22.605469 C 204.691406 22.183594 204.917969 21.777344 205.167969 21.382812 C 205.417969 20.988281 205.691406 20.609375 205.984375 20.246094 C 206.28125 19.882812 206.59375 19.539062 206.929688 19.214844 C 207.265625 18.890625 207.621094 18.585938 207.992188 18.304688 C 208.363281 18.023438 208.753906 17.765625 209.15625 17.527344 C 209.558594 17.292969 209.976562 17.082031 210.402344 16.894531 C 210.832031 16.710938 211.269531 16.550781 211.71875 16.414062 C 212.164062 16.28125 212.617188 16.175781 213.078125 16.097656 C 213.539062 16.015625 214.003906 15.964844 214.46875 15.941406 C 214.9375 15.917969 215.402344 15.921875 215.867188 15.953125 C 216.335938 15.984375 216.796875 16.042969 217.253906 16.128906 C 217.714844 16.21875 218.167969 16.332031 218.613281 16.472656 C 219.058594 16.613281 219.492188 16.78125 219.917969 16.972656 C 220.34375 17.167969 220.753906 17.386719 221.15625 17.628906 C 221.554688 17.871094 221.9375 18.136719 222.304688 18.425781 C 222.671875 18.710938 223.019531 19.023438 223.351562 19.351562 C 244.949219 40.910156 269.609375 67.066406 288.761719 97.566406 C 311.304688 133.46875 322.265625 168.636719 322.265625 205.078125 Z M 298.828125 205.078125 C 298.828125 142.746094 261.550781 92.53125 218.457031 47.796875 L 174.640625 139.804688 C 174.460938 140.183594 174.261719 140.550781 174.042969 140.90625 C 173.824219 141.261719 173.585938 141.605469 173.328125 141.9375 C 173.074219 142.269531 172.800781 142.585938 172.507812 142.886719 C 172.21875 143.191406 171.914062 143.476562 171.59375 143.746094 C 171.269531 144.015625 170.9375 144.265625 170.589844 144.5 C 170.242188 144.730469 169.882812 144.945312 169.511719 145.140625 C 169.140625 145.335938 168.757812 145.511719 168.371094 145.664062 C 167.980469 145.816406 167.582031 145.949219 167.179688 146.0625 C 166.773438 146.171875 166.367188 146.261719 165.953125 146.332031 C 165.539062 146.398438 165.125 146.445312 164.707031 146.464844 C 164.285156 146.488281 163.867188 146.488281 163.449219 146.46875 C 163.03125 146.445312 162.617188 146.402344 162.203125 146.335938 C 161.789062 146.269531 161.378906 146.179688 160.976562 146.070312 C 160.570312 145.960938 160.175781 145.828125 159.785156 145.675781 C 159.394531 145.523438 159.015625 145.347656 158.640625 145.15625 C 158.269531 144.960938 157.910156 144.75 157.5625 144.515625 L 108.941406 112.101562 C 87.1875 147.191406 76.171875 178.429688 76.171875 205.078125 C 76.171875 206.898438 76.214844 208.722656 76.304688 210.539062 C 76.394531 212.359375 76.53125 214.175781 76.707031 215.988281 C 76.886719 217.804688 77.109375 219.609375 77.375 221.414062 C 77.644531 223.214844 77.957031 225.011719 78.3125 226.796875 C 78.667969 228.585938 79.066406 230.359375 79.507812 232.128906 C 79.949219 233.894531 80.4375 235.652344 80.964844 237.394531 C 81.496094 239.136719 82.066406 240.867188 82.679688 242.582031 C 83.292969 244.300781 83.949219 246 84.644531 247.679688 C 85.34375 249.363281 86.082031 251.03125 86.859375 252.675781 C 87.640625 254.324219 88.457031 255.949219 89.316406 257.558594 C 90.175781 259.164062 91.074219 260.75 92.011719 262.3125 C 92.949219 263.875 93.921875 265.414062 94.933594 266.929688 C 95.945312 268.445312 96.996094 269.933594 98.082031 271.394531 C 99.164062 272.859375 100.285156 274.296875 101.441406 275.703125 C 102.597656 277.113281 103.789062 278.492188 105.011719 279.839844 C 106.234375 281.191406 107.492188 282.511719 108.777344 283.800781 C 110.066406 285.085938 111.386719 286.34375 112.738281 287.566406 C 114.085938 288.789062 115.464844 289.980469 116.875 291.136719 C 118.28125 292.292969 119.71875 293.414062 121.183594 294.496094 C 122.644531 295.582031 124.132812 296.632812 125.648438 297.644531 C 127.164062 298.65625 128.703125 299.628906 130.265625 300.566406 C 131.828125 301.503906 133.414062 302.402344 135.019531 303.261719 C 136.628906 304.121094 138.253906 304.9375 139.902344 305.71875 C 141.546875 306.496094 143.214844 307.234375 144.898438 307.933594 C 146.578125 308.628906 148.277344 309.285156 149.996094 309.898438 C 151.710938 310.511719 153.441406 311.082031 155.183594 311.613281 C 156.925781 312.140625 158.683594 312.628906 160.449219 313.070312 C 162.21875 313.511719 163.992188 313.910156 165.78125 314.265625 C 167.566406 314.621094 169.363281 314.933594 171.164062 315.203125 C 172.96875 315.46875 174.773438 315.691406 176.589844 315.871094 C 178.402344 316.046875 180.21875 316.183594 182.039062 316.273438 C 183.855469 316.363281 185.679688 316.40625 187.5 316.40625 C 189.320312 316.40625 191.144531 316.363281 192.960938 316.273438 C 194.78125 316.183594 196.597656 316.046875 198.410156 315.871094 C 200.226562 315.691406 202.03125 315.46875 203.835938 315.203125 C 205.636719 314.933594 207.433594 314.621094 209.21875 314.265625 C 211.007812 313.910156 212.78125 313.511719 214.550781 313.070312 C 216.316406 312.628906 218.074219 312.140625 219.816406 311.613281 C 221.558594 311.082031 223.289062 310.511719 225.003906 309.898438 C 226.722656 309.285156 228.421875 308.628906 230.101562 307.933594 C 231.785156 307.234375 233.453125 306.496094 235.097656 305.71875 C 236.746094 304.9375 238.371094 304.121094 239.980469 303.261719 C 241.585938 302.402344 243.171875 301.503906 244.734375 300.566406 C 246.296875 299.628906 247.835938 298.65625 249.351562 297.644531 C 250.867188 296.632812 252.355469 295.582031 253.816406 294.496094 C 255.28125 293.414062 256.71875 292.292969 258.125 291.136719 C 259.535156 289.980469 260.914062 288.789062 262.261719 287.566406 C 263.613281 286.34375 264.933594 285.085938 266.222656 283.800781 C 267.507812 282.511719 268.765625 281.191406 269.988281 279.839844 C 271.210938 278.492188 272.402344 277.113281 273.558594 275.703125 C 274.714844 274.296875 275.835938 272.859375 276.917969 271.394531 C 278.003906 269.933594 279.054688 268.445312 280.066406 266.929688 C 281.078125 265.414062 282.050781 263.875 282.988281 262.3125 C 283.925781 260.75 284.824219 259.164062 285.683594 257.558594 C 286.542969 255.949219 287.359375 254.324219 288.140625 252.675781 C 288.917969 251.03125 289.65625 249.363281 290.355469 247.679688 C 291.050781 246 291.707031 244.300781 292.320312 242.582031 C 292.933594 240.867188 293.503906 239.136719 294.035156 237.394531 C 294.5625 235.652344 295.050781 233.894531 295.492188 232.128906 C 295.933594 230.359375 296.332031 228.585938 296.6875 226.796875 C 297.042969 225.011719 297.355469 223.214844 297.625 221.414062 C 297.890625 219.609375 298.113281 217.804688 298.292969 215.988281 C 298.46875 214.175781 298.605469 212.359375 298.695312 210.539062 C 298.785156 208.722656 298.828125 206.898438 298.828125 205.078125 Z M 298.828125 205.078125 " fill-opacity="1" fill-rule="nonzero"/></svg>