<svg xmlns="http://www.w3.org/2000/svg" xmlns:xlink="http://www.w3.org/1999/xlink" width="500" zoomAndPan="magnify" viewBox="0 0 375 374.999991" height="500" preserveAspectRatio="xMidYMid meet" version="1.0"><defs><g/></defs><g fill="#38b6ff" fill-opacity="0.4"><g transform="translate(15.421401, 202.351276)"><g><path d="M 36.171875 -34.40625 L 36.171875 0 L 28.171875 0 L 12.984375 -18.328125 L 12.984375 0 L 3.4375 0 L 3.4375 -34.40625 L 11.453125 -34.40625 L 26.640625 -16.078125 L 26.640625 -34.40625 Z M 36.171875 -34.40625 "/></g></g></g><g fill="#38b6ff" fill-opacity="0.4"><g transform="translate(55.035042, 202.351276)"><g><path d="M 16.375 0.4375 C 13.519531 0.4375 10.941406 -0.148438 8.640625 -1.328125 C 6.347656 -2.503906 4.554688 -4.140625 3.265625 -6.234375 C 1.972656 -8.335938 1.328125 -10.71875 1.328125 -13.375 C 1.328125 -15.988281 1.972656 -18.34375 3.265625 -20.4375 C 4.554688 -22.539062 6.34375 -24.171875 8.625 -25.328125 C 10.90625 -26.492188 13.488281 -27.078125 16.375 -27.078125 C 19.25 -27.078125 21.832031 -26.492188 24.125 -25.328125 C 26.425781 -24.171875 28.210938 -22.550781 29.484375 -20.46875 C 30.765625 -18.394531 31.40625 -16.03125 31.40625 -13.375 C 31.40625 -10.71875 30.765625 -8.335938 29.484375 -6.234375 C 28.210938 -4.140625 26.425781 -2.503906 24.125 -1.328125 C 21.832031 -0.148438 19.25 0.4375 16.375 0.4375 Z M 16.375 -6.984375 C 18.007812 -6.984375 19.347656 -7.546875 20.390625 -8.671875 C 21.441406 -9.804688 21.96875 -11.375 21.96875 -13.375 C 21.96875 -15.332031 21.441406 -16.867188 20.390625 -17.984375 C 19.347656 -19.097656 18.007812 -19.65625 16.375 -19.65625 C 14.726562 -19.65625 13.378906 -19.097656 12.328125 -17.984375 C 11.285156 -16.867188 10.765625 -15.332031 10.765625 -13.375 C 10.765625 -11.375 11.285156 -9.804688 12.328125 -8.671875 C 13.378906 -7.546875 14.726562 -6.984375 16.375 -6.984375 Z M 16.375 -6.984375 "/></g></g></g><g fill="#38b6ff" fill-opacity="0.4"><g transform="translate(87.7679, 202.351276)"><g><path d="M 20.59375 0.6875 C 16.988281 0.6875 13.753906 -0.0703125 10.890625 -1.59375 C 8.023438 -3.125 5.769531 -5.25 4.125 -7.96875 C 2.488281 -10.6875 1.671875 -13.765625 1.671875 -17.203125 C 1.671875 -20.640625 2.488281 -23.71875 4.125 -26.4375 C 5.769531 -29.164062 8.023438 -31.289062 10.890625 -32.8125 C 13.753906 -34.332031 16.988281 -35.09375 20.59375 -35.09375 C 23.738281 -35.09375 26.570312 -34.535156 29.09375 -33.421875 C 31.625 -32.304688 33.722656 -30.703125 35.390625 -28.609375 L 29.203125 -23 C 26.972656 -25.6875 24.269531 -27.03125 21.09375 -27.03125 C 19.21875 -27.03125 17.550781 -26.617188 16.09375 -25.796875 C 14.632812 -24.984375 13.503906 -23.832031 12.703125 -22.34375 C 11.898438 -20.851562 11.5 -19.140625 11.5 -17.203125 C 11.5 -15.265625 11.898438 -13.550781 12.703125 -12.0625 C 13.503906 -10.570312 14.632812 -9.414062 16.09375 -8.59375 C 17.550781 -7.78125 19.21875 -7.375 21.09375 -7.375 C 24.269531 -7.375 26.972656 -8.71875 29.203125 -11.40625 L 35.390625 -5.796875 C 33.722656 -3.703125 31.625 -2.097656 29.09375 -0.984375 C 26.570312 0.128906 23.738281 0.6875 20.59375 0.6875 Z M 20.59375 0.6875 "/></g></g></g><g fill="#38b6ff" fill-opacity="0.4"><g transform="translate(124.039444, 202.351276)"><g><path d="M 16.375 0.4375 C 13.519531 0.4375 10.941406 -0.148438 8.640625 -1.328125 C 6.347656 -2.503906 4.554688 -4.140625 3.265625 -6.234375 C 1.972656 -8.335938 1.328125 -10.71875 1.328125 -13.375 C 1.328125 -15.988281 1.972656 -18.34375 3.265625 -20.4375 C 4.554688 -22.539062 6.34375 -24.171875 8.625 -25.328125 C 10.90625 -26.492188 13.488281 -27.078125 16.375 -27.078125 C 19.25 -27.078125 21.832031 -26.492188 24.125 -25.328125 C 26.425781 -24.171875 28.210938 -22.550781 29.484375 -20.46875 C 30.765625 -18.394531 31.40625 -16.03125 31.40625 -13.375 C 31.40625 -10.71875 30.765625 -8.335938 29.484375 -6.234375 C 28.210938 -4.140625 26.425781 -2.503906 24.125 -1.328125 C 21.832031 -0.148438 19.25 0.4375 16.375 0.4375 Z M 16.375 -6.984375 C 18.007812 -6.984375 19.347656 -7.546875 20.390625 -8.671875 C 21.441406 -9.804688 21.96875 -11.375 21.96875 -13.375 C 21.96875 -15.332031 21.441406 -16.867188 20.390625 -17.984375 C 19.347656 -19.097656 18.007812 -19.65625 16.375 -19.65625 C 14.726562 -19.65625 13.378906 -19.097656 12.328125 -17.984375 C 11.285156 -16.867188 10.765625 -15.332031 10.765625 -13.375 C 10.765625 -11.375 11.285156 -9.804688 12.328125 -8.671875 C 13.378906 -7.546875 14.726562 -6.984375 16.375 -6.984375 Z M 16.375 -6.984375 "/></g></g></g><g fill="#38b6ff" fill-opacity="0.4"><g transform="translate(156.772302, 202.351276)"><g><path d="M 31.3125 -36.46875 L 31.3125 0 L 22.421875 0 L 22.421875 -2.65625 C 20.679688 -0.59375 18.070312 0.4375 14.59375 0.4375 C 12.175781 0.4375 9.96875 -0.125 7.96875 -1.25 C 5.96875 -2.382812 4.382812 -4 3.21875 -6.09375 C 2.050781 -8.1875 1.46875 -10.613281 1.46875 -13.375 C 1.46875 -16.125 2.050781 -18.539062 3.21875 -20.625 C 4.382812 -22.707031 5.96875 -24.300781 7.96875 -25.40625 C 9.96875 -26.519531 12.175781 -27.078125 14.59375 -27.078125 C 17.78125 -27.078125 20.238281 -26.160156 21.96875 -24.328125 L 21.96875 -36.46875 Z M 16.5625 -6.984375 C 18.164062 -6.984375 19.492188 -7.546875 20.546875 -8.671875 C 21.597656 -9.804688 22.125 -11.375 22.125 -13.375 C 22.125 -15.332031 21.609375 -16.867188 20.578125 -17.984375 C 19.546875 -19.097656 18.207031 -19.65625 16.5625 -19.65625 C 14.925781 -19.65625 13.582031 -19.097656 12.53125 -17.984375 C 11.488281 -16.867188 10.96875 -15.332031 10.96875 -13.375 C 10.96875 -11.375 11.488281 -9.804688 12.53125 -8.671875 C 13.582031 -7.546875 14.925781 -6.984375 16.5625 -6.984375 Z M 16.5625 -6.984375 "/></g></g></g><g fill="#38b6ff" fill-opacity="0.4"><g transform="translate(191.07791, 202.351276)"><g><path d="M 30.234375 -13.265625 C 30.234375 -13.203125 30.179688 -12.4375 30.078125 -10.96875 L 10.71875 -10.96875 C 11.113281 -9.582031 11.875 -8.519531 13 -7.78125 C 14.132812 -7.050781 15.550781 -6.6875 17.25 -6.6875 C 18.53125 -6.6875 19.632812 -6.863281 20.5625 -7.21875 C 21.5 -7.582031 22.441406 -8.175781 23.390625 -9 L 28.3125 -3.890625 C 25.726562 -1.003906 21.941406 0.4375 16.953125 0.4375 C 13.835938 0.4375 11.097656 -0.148438 8.734375 -1.328125 C 6.378906 -2.503906 4.554688 -4.140625 3.265625 -6.234375 C 1.972656 -8.335938 1.328125 -10.71875 1.328125 -13.375 C 1.328125 -15.988281 1.957031 -18.335938 3.21875 -20.421875 C 4.476562 -22.503906 6.222656 -24.132812 8.453125 -25.3125 C 10.679688 -26.488281 13.1875 -27.078125 15.96875 -27.078125 C 18.625 -27.078125 21.035156 -26.53125 23.203125 -25.4375 C 25.367188 -24.34375 27.082031 -22.753906 28.34375 -20.671875 C 29.601562 -18.585938 30.234375 -16.117188 30.234375 -13.265625 Z M 16.03125 -20.453125 C 14.582031 -20.453125 13.375 -20.039062 12.40625 -19.21875 C 11.445312 -18.394531 10.832031 -17.28125 10.5625 -15.875 L 21.484375 -15.875 C 21.222656 -17.28125 20.609375 -18.394531 19.640625 -19.21875 C 18.671875 -20.039062 17.46875 -20.453125 16.03125 -20.453125 Z M 16.03125 -20.453125 "/></g></g></g><g fill="#38b6ff" fill-opacity="0.4"><g transform="translate(222.631203, 202.351276)"><g/></g></g><g fill="#38b6ff" fill-opacity="0.4"><g transform="translate(236.933411, 202.351276)"><g><path d="M 20.59375 0.6875 C 16.988281 0.6875 13.753906 -0.0703125 10.890625 -1.59375 C 8.023438 -3.125 5.769531 -5.25 4.125 -7.96875 C 2.488281 -10.6875 1.671875 -13.765625 1.671875 -17.203125 C 1.671875 -20.640625 2.488281 -23.71875 4.125 -26.4375 C 5.769531 -29.164062 8.023438 -31.289062 10.890625 -32.8125 C 13.753906 -34.332031 16.988281 -35.09375 20.59375 -35.09375 C 23.738281 -35.09375 26.570312 -34.535156 29.09375 -33.421875 C 31.625 -32.304688 33.722656 -30.703125 35.390625 -28.609375 L 29.203125 -23 C 26.972656 -25.6875 24.269531 -27.03125 21.09375 -27.03125 C 19.21875 -27.03125 17.550781 -26.617188 16.09375 -25.796875 C 14.632812 -24.984375 13.503906 -23.832031 12.703125 -22.34375 C 11.898438 -20.851562 11.5 -19.140625 11.5 -17.203125 C 11.5 -15.265625 11.898438 -13.550781 12.703125 -12.0625 C 13.503906 -10.570312 14.632812 -9.414062 16.09375 -8.59375 C 17.550781 -7.78125 19.21875 -7.375 21.09375 -7.375 C 24.269531 -7.375 26.972656 -8.71875 29.203125 -11.40625 L 35.390625 -5.796875 C 33.722656 -3.703125 31.625 -2.097656 29.09375 -0.984375 C 26.570312 0.128906 23.738281 0.6875 20.59375 0.6875 Z M 20.59375 0.6875 "/></g></g></g><g fill="#38b6ff" fill-opacity="0.4"><g transform="translate(273.204954, 202.351276)"><g><path d="M 14.359375 -27.078125 C 18.773438 -27.078125 22.144531 -26.066406 24.46875 -24.046875 C 26.800781 -22.035156 27.96875 -18.953125 27.96875 -14.796875 L 27.96875 0 L 19.265625 0 L 19.265625 -3.4375 C 17.921875 -0.851562 15.300781 0.4375 11.40625 0.4375 C 9.34375 0.4375 7.554688 0.078125 6.046875 -0.640625 C 4.535156 -1.359375 3.394531 -2.332031 2.625 -3.5625 C 1.851562 -4.789062 1.46875 -6.191406 1.46875 -7.765625 C 1.46875 -10.285156 2.4375 -12.242188 4.375 -13.640625 C 6.3125 -15.035156 9.296875 -15.734375 13.328125 -15.734375 L 18.625 -15.734375 C 18.46875 -18.546875 16.585938 -19.953125 12.984375 -19.953125 C 11.703125 -19.953125 10.40625 -19.75 9.09375 -19.34375 C 7.78125 -18.9375 6.664062 -18.367188 5.75 -17.640625 L 2.609375 -23.984375 C 4.078125 -24.972656 5.867188 -25.734375 7.984375 -26.265625 C 10.097656 -26.804688 12.222656 -27.078125 14.359375 -27.078125 Z M 14.015625 -5.453125 C 15.085938 -5.453125 16.035156 -5.710938 16.859375 -6.234375 C 17.679688 -6.765625 18.269531 -7.535156 18.625 -8.546875 L 18.625 -10.859375 L 14.59375 -10.859375 C 11.875 -10.859375 10.515625 -9.957031 10.515625 -8.15625 C 10.515625 -7.34375 10.828125 -6.6875 11.453125 -6.1875 C 12.078125 -5.695312 12.929688 -5.453125 14.015625 -5.453125 Z M 14.015625 -5.453125 "/></g></g></g><g fill="#38b6ff" fill-opacity="0.4"><g transform="translate(304.070171, 202.351276)"><g><path d="M 11.890625 -23.453125 C 12.847656 -24.660156 14.085938 -25.566406 15.609375 -26.171875 C 17.128906 -26.773438 18.875 -27.078125 20.84375 -27.078125 L 20.84375 -18.671875 C 19.988281 -18.773438 19.285156 -18.828125 18.734375 -18.828125 C 16.734375 -18.828125 15.164062 -18.285156 14.03125 -17.203125 C 12.90625 -16.117188 12.34375 -14.460938 12.34375 -12.234375 L 12.34375 0 L 3 0 L 3 -26.640625 L 11.890625 -26.640625 Z M 11.890625 -23.453125 "/></g></g></g><g fill="#38b6ff" fill-opacity="0.4"><g transform="translate(325.84292, 202.351276)"><g><path d="M 21.390625 -1.078125 C 20.597656 -0.585938 19.632812 -0.210938 18.5 0.046875 C 17.375 0.304688 16.171875 0.4375 14.890625 0.4375 C 11.421875 0.4375 8.75 -0.410156 6.875 -2.109375 C 5.007812 -3.816406 4.078125 -6.359375 4.078125 -9.734375 L 4.078125 -18.671875 L 0.203125 -18.671875 L 0.203125 -25.65625 L 4.078125 -25.65625 L 4.078125 -32.59375 L 13.421875 -32.59375 L 13.421875 -25.65625 L 19.515625 -25.65625 L 19.515625 -18.671875 L 13.421875 -18.671875 L 13.421875 -9.828125 C 13.421875 -8.878906 13.671875 -8.132812 14.171875 -7.59375 C 14.679688 -7.050781 15.363281 -6.78125 16.21875 -6.78125 C 17.300781 -6.78125 18.253906 -7.0625 19.078125 -7.625 Z M 21.390625 -1.078125 "/></g></g></g><g fill="#ffffff" fill-opacity="1"><g transform="translate(15.421401, 202.351276)"><g><path d="M 36.171875 -34.40625 L 36.171875 0 L 28.171875 0 L 12.984375 -18.328125 L 12.984375 0 L 3.4375 0 L 3.4375 -34.40625 L 11.453125 -34.40625 L 26.640625 -16.078125 L 26.640625 -34.40625 Z M 36.171875 -34.40625 "/></g></g></g><g fill="#ffffff" fill-opacity="1"><g transform="translate(55.035042, 202.351276)"><g><path d="M 16.375 0.4375 C 13.519531 0.4375 10.941406 -0.148438 8.640625 -1.328125 C 6.347656 -2.503906 4.554688 -4.140625 3.265625 -6.234375 C 1.972656 -8.335938 1.328125 -10.71875 1.328125 -13.375 C 1.328125 -15.988281 1.972656 -18.34375 3.265625 -20.4375 C 4.554688 -22.539062 6.34375 -24.171875 8.625 -25.328125 C 10.90625 -26.492188 13.488281 -27.078125 16.375 -27.078125 C 19.25 -27.078125 21.832031 -26.492188 24.125 -25.328125 C 26.425781 -24.171875 28.210938 -22.550781 29.484375 -20.46875 C 30.765625 -18.394531 31.40625 -16.03125 31.40625 -13.375 C 31.40625 -10.71875 30.765625 -8.335938 29.484375 -6.234375 C 28.210938 -4.140625 26.425781 -2.503906 24.125 -1.328125 C 21.832031 -0.148438 19.25 0.4375 16.375 0.4375 Z M 16.375 -6.984375 C 18.007812 -6.984375 19.347656 -7.546875 20.390625 -8.671875 C 21.441406 -9.804688 21.96875 -11.375 21.96875 -13.375 C 21.96875 -15.332031 21.441406 -16.867188 20.390625 -17.984375 C 19.347656 -19.097656 18.007812 -19.65625 16.375 -19.65625 C 14.726562 -19.65625 13.378906 -19.097656 12.328125 -17.984375 C 11.285156 -16.867188 10.765625 -15.332031 10.765625 -13.375 C 10.765625 -11.375 11.285156 -9.804688 12.328125 -8.671875 C 13.378906 -7.546875 14.726562 -6.984375 16.375 -6.984375 Z M 16.375 -6.984375 "/></g></g></g><g fill="#ffffff" fill-opacity="1"><g transform="translate(87.7679, 202.351276)"><g><path d="M 20.59375 0.6875 C 16.988281 0.6875 13.753906 -0.0703125 10.890625 -1.59375 C 8.023438 -3.125 5.769531 -5.25 4.125 -7.96875 C 2.488281 -10.6875 1.671875 -13.765625 1.671875 -17.203125 C 1.671875 -20.640625 2.488281 -23.71875 4.125 -26.4375 C 5.769531 -29.164062 8.023438 -31.289062 10.890625 -32.8125 C 13.753906 -34.332031 16.988281 -35.09375 20.59375 -35.09375 C 23.738281 -35.09375 26.570312 -34.535156 29.09375 -33.421875 C 31.625 -32.304688 33.722656 -30.703125 35.390625 -28.609375 L 29.203125 -23 C 26.972656 -25.6875 24.269531 -27.03125 21.09375 -27.03125 C 19.21875 -27.03125 17.550781 -26.617188 16.09375 -25.796875 C 14.632812 -24.984375 13.503906 -23.832031 12.703125 -22.34375 C 11.898438 -20.851562 11.5 -19.140625 11.5 -17.203125 C 11.5 -15.265625 11.898438 -13.550781 12.703125 -12.0625 C 13.503906 -10.570312 14.632812 -9.414062 16.09375 -8.59375 C 17.550781 -7.78125 19.21875 -7.375 21.09375 -7.375 C 24.269531 -7.375 26.972656 -8.71875 29.203125 -11.40625 L 35.390625 -5.796875 C 33.722656 -3.703125 31.625 -2.097656 29.09375 -0.984375 C 26.570312 0.128906 23.738281 0.6875 20.59375 0.6875 Z M 20.59375 0.6875 "/></g></g></g><g fill="#ffffff" fill-opacity="1"><g transform="translate(124.039444, 202.351276)"><g><path d="M 16.375 0.4375 C 13.519531 0.4375 10.941406 -0.148438 8.640625 -1.328125 C 6.347656 -2.503906 4.554688 -4.140625 3.265625 -6.234375 C 1.972656 -8.335938 1.328125 -10.71875 1.328125 -13.375 C 1.328125 -15.988281 1.972656 -18.34375 3.265625 -20.4375 C 4.554688 -22.539062 6.34375 -24.171875 8.625 -25.328125 C 10.90625 -26.492188 13.488281 -27.078125 16.375 -27.078125 C 19.25 -27.078125 21.832031 -26.492188 24.125 -25.328125 C 26.425781 -24.171875 28.210938 -22.550781 29.484375 -20.46875 C 30.765625 -18.394531 31.40625 -16.03125 31.40625 -13.375 C 31.40625 -10.71875 30.765625 -8.335938 29.484375 -6.234375 C 28.210938 -4.140625 26.425781 -2.503906 24.125 -1.328125 C 21.832031 -0.148438 19.25 0.4375 16.375 0.4375 Z M 16.375 -6.984375 C 18.007812 -6.984375 19.347656 -7.546875 20.390625 -8.671875 C 21.441406 -9.804688 21.96875 -11.375 21.96875 -13.375 C 21.96875 -15.332031 21.441406 -16.867188 20.390625 -17.984375 C 19.347656 -19.097656 18.007812 -19.65625 16.375 -19.65625 C 14.726562 -19.65625 13.378906 -19.097656 12.328125 -17.984375 C 11.285156 -16.867188 10.765625 -15.332031 10.765625 -13.375 C 10.765625 -11.375 11.285156 -9.804688 12.328125 -8.671875 C 13.378906 -7.546875 14.726562 -6.984375 16.375 -6.984375 Z M 16.375 -6.984375 "/></g></g></g><g fill="#ffffff" fill-opacity="1"><g transform="translate(156.772302, 202.351276)"><g><path d="M 31.3125 -36.46875 L 31.3125 0 L 22.421875 0 L 22.421875 -2.65625 C 20.679688 -0.59375 18.070312 0.4375 14.59375 0.4375 C 12.175781 0.4375 9.96875 -0.125 7.96875 -1.25 C 5.96875 -2.382812 4.382812 -4 3.21875 -6.09375 C 2.050781 -8.1875 1.46875 -10.613281 1.46875 -13.375 C 1.46875 -16.125 2.050781 -18.539062 3.21875 -20.625 C 4.382812 -22.707031 5.96875 -24.300781 7.96875 -25.40625 C 9.96875 -26.519531 12.175781 -27.078125 14.59375 -27.078125 C 17.78125 -27.078125 20.238281 -26.160156 21.96875 -24.328125 L 21.96875 -36.46875 Z M 16.5625 -6.984375 C 18.164062 -6.984375 19.492188 -7.546875 20.546875 -8.671875 C 21.597656 -9.804688 22.125 -11.375 22.125 -13.375 C 22.125 -15.332031 21.609375 -16.867188 20.578125 -17.984375 C 19.546875 -19.097656 18.207031 -19.65625 16.5625 -19.65625 C 14.925781 -19.65625 13.582031 -19.097656 12.53125 -17.984375 C 11.488281 -16.867188 10.96875 -15.332031 10.96875 -13.375 C 10.96875 -11.375 11.488281 -9.804688 12.53125 -8.671875 C 13.582031 -7.546875 14.925781 -6.984375 16.5625 -6.984375 Z M 16.5625 -6.984375 "/></g></g></g><g fill="#ffffff" fill-opacity="1"><g transform="translate(191.07791, 202.351276)"><g><path d="M 30.234375 -13.265625 C 30.234375 -13.203125 30.179688 -12.4375 30.078125 -10.96875 L 10.71875 -10.96875 C 11.113281 -9.582031 11.875 -8.519531 13 -7.78125 C 14.132812 -7.050781 15.550781 -6.6875 17.25 -6.6875 C 18.53125 -6.6875 19.632812 -6.863281 20.5625 -7.21875 C 21.5 -7.582031 22.441406 -8.175781 23.390625 -9 L 28.3125 -3.890625 C 25.726562 -1.003906 21.941406 0.4375 16.953125 0.4375 C 13.835938 0.4375 11.097656 -0.148438 8.734375 -1.328125 C 6.378906 -2.503906 4.554688 -4.140625 3.265625 -6.234375 C 1.972656 -8.335938 1.328125 -10.71875 1.328125 -13.375 C 1.328125 -15.988281 1.957031 -18.335938 3.21875 -20.421875 C 4.476562 -22.503906 6.222656 -24.132812 8.453125 -25.3125 C 10.679688 -26.488281 13.1875 -27.078125 15.96875 -27.078125 C 18.625 -27.078125 21.035156 -26.53125 23.203125 -25.4375 C 25.367188 -24.34375 27.082031 -22.753906 28.34375 -20.671875 C 29.601562 -18.585938 30.234375 -16.117188 30.234375 -13.265625 Z M 16.03125 -20.453125 C 14.582031 -20.453125 13.375 -20.039062 12.40625 -19.21875 C 11.445312 -18.394531 10.832031 -17.28125 10.5625 -15.875 L 21.484375 -15.875 C 21.222656 -17.28125 20.609375 -18.394531 19.640625 -19.21875 C 18.671875 -20.039062 17.46875 -20.453125 16.03125 -20.453125 Z M 16.03125 -20.453125 "/></g></g></g><g fill="#ffffff" fill-opacity="1"><g transform="translate(222.631203, 202.351276)"><g/></g></g><g fill="#ffffff" fill-opacity="1"><g transform="translate(236.933411, 202.351276)"><g><path d="M 20.59375 0.6875 C 16.988281 0.6875 13.753906 -0.0703125 10.890625 -1.59375 C 8.023438 -3.125 5.769531 -5.25 4.125 -7.96875 C 2.488281 -10.6875 1.671875 -13.765625 1.671875 -17.203125 C 1.671875 -20.640625 2.488281 -23.71875 4.125 -26.4375 C 5.769531 -29.164062 8.023438 -31.289062 10.890625 -32.8125 C 13.753906 -34.332031 16.988281 -35.09375 20.59375 -35.09375 C 23.738281 -35.09375 26.570312 -34.535156 29.09375 -33.421875 C 31.625 -32.304688 33.722656 -30.703125 35.390625 -28.609375 L 29.203125 -23 C 26.972656 -25.6875 24.269531 -27.03125 21.09375 -27.03125 C 19.21875 -27.03125 17.550781 -26.617188 16.09375 -25.796875 C 14.632812 -24.984375 13.503906 -23.832031 12.703125 -22.34375 C 11.898438 -20.851562 11.5 -19.140625 11.5 -17.203125 C 11.5 -15.265625 11.898438 -13.550781 12.703125 -12.0625 C 13.503906 -10.570312 14.632812 -9.414062 16.09375 -8.59375 C 17.550781 -7.78125 19.21875 -7.375 21.09375 -7.375 C 24.269531 -7.375 26.972656 -8.71875 29.203125 -11.40625 L 35.390625 -5.796875 C 33.722656 -3.703125 31.625 -2.097656 29.09375 -0.984375 C 26.570312 0.128906 23.738281 0.6875 20.59375 0.6875 Z M 20.59375 0.6875 "/></g></g></g><g fill="#ffffff" fill-opacity="1"><g transform="translate(273.204954, 202.351276)"><g><path d="M 14.359375 -27.078125 C 18.773438 -27.078125 22.144531 -26.066406 24.46875 -24.046875 C 26.800781 -22.035156 27.96875 -18.953125 27.96875 -14.796875 L 27.96875 0 L 19.265625 0 L 19.265625 -3.4375 C 17.921875 -0.851562 15.300781 0.4375 11.40625 0.4375 C 9.34375 0.4375 7.554688 0.078125 6.046875 -0.640625 C 4.535156 -1.359375 3.394531 -2.332031 2.625 -3.5625 C 1.851562 -4.789062 1.46875 -6.191406 1.46875 -7.765625 C 1.46875 -10.285156 2.4375 -12.242188 4.375 -13.640625 C 6.3125 -15.035156 9.296875 -15.734375 13.328125 -15.734375 L 18.625 -15.734375 C 18.46875 -18.546875 16.585938 -19.953125 12.984375 -19.953125 C 11.703125 -19.953125 10.40625 -19.75 9.09375 -19.34375 C 7.78125 -18.9375 6.664062 -18.367188 5.75 -17.640625 L 2.609375 -23.984375 C 4.078125 -24.972656 5.867188 -25.734375 7.984375 -26.265625 C 10.097656 -26.804688 12.222656 -27.078125 14.359375 -27.078125 Z M 14.015625 -5.453125 C 15.085938 -5.453125 16.035156 -5.710938 16.859375 -6.234375 C 17.679688 -6.765625 18.269531 -7.535156 18.625 -8.546875 L 18.625 -10.859375 L 14.59375 -10.859375 C 11.875 -10.859375 10.515625 -9.957031 10.515625 -8.15625 C 10.515625 -7.34375 10.828125 -6.6875 11.453125 -6.1875 C 12.078125 -5.695312 12.929688 -5.453125 14.015625 -5.453125 Z M 14.015625 -5.453125 "/></g></g></g><g fill="#ffffff" fill-opacity="1"><g transform="translate(304.070171, 202.351276)"><g><path d="M 11.890625 -23.453125 C 12.847656 -24.660156 14.085938 -25.566406 15.609375 -26.171875 C 17.128906 -26.773438 18.875 -27.078125 20.84375 -27.078125 L 20.84375 -18.671875 C 19.988281 -18.773438 19.285156 -18.828125 18.734375 -18.828125 C 16.734375 -18.828125 15.164062 -18.285156 14.03125 -17.203125 C 12.90625 -16.117188 12.34375 -14.460938 12.34375 -12.234375 L 12.34375 0 L 3 0 L 3 -26.640625 L 11.890625 -26.640625 Z M 11.890625 -23.453125 "/></g></g></g><g fill="#ffffff" fill-opacity="1"><g transform="translate(325.84292, 202.351276)"><g><path d="M 21.390625 -1.078125 C 20.597656 -0.585938 19.632812 -0.210938 18.5 0.046875 C 17.375 0.304688 16.171875 0.4375 14.890625 0.4375 C 11.421875 0.4375 8.75 -0.410156 6.875 -2.109375 C 5.007812 -3.816406 4.078125 -6.359375 4.078125 -9.734375 L 4.078125 -18.671875 L 0.203125 -18.671875 L 0.203125 -25.65625 L 4.078125 -25.65625 L 4.078125 -32.59375 L 13.421875 -32.59375 L 13.421875 -25.65625 L 19.515625 -25.65625 L 19.515625 -18.671875 L 13.421875 -18.671875 L 13.421875 -9.828125 C 13.421875 -8.878906 13.671875 -8.132812 14.171875 -7.59375 C 14.679688 -7.050781 15.363281 -6.78125 16.21875 -6.78125 C 17.300781 -6.78125 18.253906 -7.0625 19.078125 -7.625 Z M 21.390625 -1.078125 "/></g></g></g><g fill="#38b6ff" fill-opacity="0.4"><g transform="translate(347.37842, 202.655437)"><g><path d="M 8.546875 -10.515625 C 10.117188 -10.515625 11.453125 -9.960938 12.546875 -8.859375 C 13.648438 -7.765625 14.203125 -6.429688 14.203125 -4.859375 C 14.203125 -3.328125 13.648438 -2.007812 12.546875 -0.90625 C 11.453125 0.1875 10.117188 0.734375 8.546875 0.734375 C 7.015625 0.734375 5.695312 0.1875 4.59375 -0.90625 C 3.5 -2.007812 2.953125 -3.328125 2.953125 -4.859375 C 2.953125 -6.429688 3.5 -7.765625 4.59375 -8.859375 C 5.695312 -9.960938 7.015625 -10.515625 8.546875 -10.515625 Z M 8.546875 -10.515625 "/></g></g></g><g fill="#ff6600" fill-opacity="1"><g transform="translate(347.37842, 202.655437)"><g><path d="M 8.546875 -10.515625 C 10.117188 -10.515625 11.453125 -9.960938 12.546875 -8.859375 C 13.648438 -7.765625 14.203125 -6.429688 14.203125 -4.859375 C 14.203125 -3.328125 13.648438 -2.007812 12.546875 -0.90625 C 11.453125 0.1875 10.117188 0.734375 8.546875 0.734375 C 7.015625 0.734375 5.695312 0.1875 4.59375 -0.90625 C 3.5 -2.007812 2.953125 -3.328125 2.953125 -4.859375 C 2.953125 -6.429688 3.5 -7.765625 4.59375 -8.859375 C 5.695312 -9.960938 7.015625 -10.515625 8.546875 -10.515625 Z M 8.546875 -10.515625 "/></g></g></g></svg>